STARTFONT 2.1
COMMENT double story a
FONT -lucy-tewi2a-bold-r-normal--11-80-100-100-c-60-ISO10646-1
SIZE 11 100 100
FONTBOUNDINGBOX 6 13 0 -3
STARTPROPERTIES 22
COPYRIGHT "© lucy <ne.tetewi@gmail.com>"
FOUNDRY "lucy"
FAMILY_NAME "tewi2a"
WEIGHT_NAME "bold"
SLANT "r"
SETWIDTH_NAME "normal"
ADD_STYLE_NAME ""
PIXEL_SIZE 11
POINT_SIZE 80
RESOLUTION_X 100
RESOLUTION_Y 100
SPACING "c"
AVERAGE_WIDTH 60
CHARSET_REGISTRY "ISO10646"
CHARSET_ENCODING "1"
FONT_ASCENT 9
FONT_DESCENT 3
UNDERLINE_POSITION -1
UNDERLINE_THICKNESS 1
NORM_SPACE 6
FIGURE_WIDTH 6
_GBDFED_INFO "Edited with gbdfed 1.6."
ENDPROPERTIES
CHARS 23
STARTCHAR LATIN SMALL LETTER A
ENCODING 97
SWIDTH 392 0
DWIDTH 6 0
BBX 5 5 0 0
BITMAP
70
18
78
D8
78
ENDCHAR
STARTCHAR LATIN SMALL LETTER A WITH GRAVE
ENCODING 224
SWIDTH 392 0
DWIDTH 6 0
BBX 5 8 0 0
BITMAP
60
30
00
70
18
78
D8
78
ENDCHAR
STARTCHAR LATIN SMALL LETTER A WITH ACUTE
ENCODING 225
SWIDTH 392 0
DWIDTH 6 0
BBX 5 8 0 0
BITMAP
30
60
00
70
18
78
D8
78
ENDCHAR
STARTCHAR LATIN SMALL LETTER A WITH CIRCUMFLEX
ENCODING 226
SWIDTH 392 0
DWIDTH 6 0
BBX 5 8 0 0
BITMAP
20
50
00
70
18
78
D8
78
ENDCHAR
STARTCHAR LATIN SMALL LETTER A WITH TILDE
ENCODING 227
SWIDTH 392 0
DWIDTH 6 0
BBX 5 8 0 0
BITMAP
68
B0
00
70
18
78
D8
78
ENDCHAR
STARTCHAR LATIN SMALL LETTER A WITH DIAERESIS
ENCODING 228
SWIDTH 392 0
DWIDTH 6 0
BBX 5 7 0 0
BITMAP
D8
00
70
18
78
D8
78
ENDCHAR
STARTCHAR LATIN SMALL LETTER A WITH RING ABOVE
ENCODING 229
SWIDTH 392 0
DWIDTH 6 0
BBX 5 9 0 0
BITMAP
20
50
20
00
70
18
78
D8
78
ENDCHAR
STARTCHAR LATIN SMALL LETTER A WITH MACRON
ENCODING 257
SWIDTH 392 0
DWIDTH 6 0
BBX 5 7 0 0
BITMAP
F8
00
70
18
78
D8
78
ENDCHAR
STARTCHAR LATIN SMALL LETTER A WITH BREVE
ENCODING 259
SWIDTH 392 0
DWIDTH 6 0
BBX 5 8 0 0
BITMAP
D8
70
00
70
18
78
D8
78
ENDCHAR
STARTCHAR LATIN SMALL LETTER A WITH OGONEK
ENCODING 261
SWIDTH 392 0
DWIDTH 6 0
BBX 6 6 0 -1
BITMAP
70
18
78
D8
78
0C
ENDCHAR
STARTCHAR LATIN SMALL LETTER A WITH CARON
ENCODING 462
SWIDTH 392 0
DWIDTH 6 0
BBX 5 8 0 0
BITMAP
50
20
00
70
18
78
D8
78
ENDCHAR
STARTCHAR LATIN SMALL LETTER A WITH DIAERESIS AND MACRON
ENCODING 479
SWIDTH 392 0
DWIDTH 6 0
BBX 5 9 0 0
BITMAP
F8
00
D8
00
70
18
78
D8
78
ENDCHAR
STARTCHAR LATIN SMALL LETTER A WITH DOT ABOVE AND MACRON
ENCODING 481
SWIDTH 392 0
DWIDTH 6 0
BBX 5 9 0 0
BITMAP
70
00
20
00
70
18
78
D8
78
ENDCHAR
STARTCHAR LATIN SMALL LETTER A WITH RING ABOVE AND ACUTE
ENCODING 507
SWIDTH 392 0
DWIDTH 6 0
BBX 5 9 0 0
BITMAP
10
20
50
20
70
18
78
D8
78
ENDCHAR
STARTCHAR LATIN SMALL LETTER A WITH DOUBLE GRAVE
ENCODING 513
SWIDTH 392 0
DWIDTH 6 0
BBX 5 8 0 0
BITMAP
A0
50
00
70
18
78
D8
78
ENDCHAR
STARTCHAR LATIN SMALL LETTER A WITH INVERTED BREVE
ENCODING 515
SWIDTH 392 0
DWIDTH 6 0
BBX 5 8 0 0
BITMAP
70
D8
00
70
18
78
D8
78
ENDCHAR
STARTCHAR LATIN SMALL LETTER A WITH DOT ABOVE
ENCODING 551
SWIDTH 392 0
DWIDTH 6 0
BBX 5 7 0 0
BITMAP
20
00
70
18
78
D8
78
ENDCHAR
STARTCHAR LATIN SMALL LETTER TURNED A
ENCODING 592
SWIDTH 392 0
DWIDTH 6 0
BBX 5 5 0 0
BITMAP
F0
D8
F0
C0
70
ENDCHAR
STARTCHAR LATIN SMALL LETTER A WITH RING BELOW
ENCODING 7681
SWIDTH 392 0
DWIDTH 6 0
BBX 5 8 0 -3
BITMAP
70
18
78
D8
78
20
50
20
ENDCHAR
STARTCHAR LATIN SMALL LETTER A WITH DOT BELOW
ENCODING 7841
SWIDTH 392 0
DWIDTH 6 0
BBX 5 7 0 -2
BITMAP
70
18
78
D8
78
00
20
ENDCHAR
STARTCHAR LATIN SMALL LETTER A WITH HOOK ABOVE
ENCODING 7843
SWIDTH 392 0
DWIDTH 6 0
BBX 5 9 0 0
BITMAP
20
50
10
20
70
18
78
D8
78
ENDCHAR
STARTCHAR LATIN SMALL LETTER A WITH CIRCUMFLEX AND ACUTE
ENCODING 7845
SWIDTH 392 0
DWIDTH 6 0
BBX 5 8 0 0
BITMAP
48
B0
00
70
18
78
D8
78
ENDCHAR
STARTCHAR LATIN SMALL LETTER A WITH CIRCUMFLEX AND GRAVE
ENCODING 7847
SWIDTH 392 0
DWIDTH 6 0
BBX 5 8 0 0
BITMAP
90
68
00
70
18
78
D8
78
ENDCHAR
ENDFONT
